<?xml version="1.0" encoding="UTF-8"?>
<svg id="Layer_1" data-name="Layer 1" xmlns="http://www.w3.org/2000/svg" xmlns:xlink="http://www.w3.org/1999/xlink" viewBox="0 0 915.79 1298.07">
  <defs>
    <style>
      .cls-1 {
        fill: #ba7006;
      }

      .cls-2 {
        fill: url(#linear-gradient-2);
      }

      .cls-3 {
        fill: #d6981d;
      }

      .cls-4 {
        fill: url(#linear-gradient);
      }

      .cls-5 {
        fill: #211b0f;
      }

      .cls-6 {
        fill: #ededed;
      }

      .cls-7 {
        fill: #776f67;
      }
    </style>
    <linearGradient id="linear-gradient" x1="868.71" y1="283.49" x2="416" y2="884.15" gradientUnits="userSpaceOnUse">
      <stop offset="0" stop-color="#00c6ed"/>
      <stop offset=".56" stop-color="#003055"/>
    </linearGradient>
    <linearGradient id="linear-gradient-2" x1="650.04" y1="554.71" x2="537.68" y2="749.33" gradientUnits="userSpaceOnUse">
      <stop offset="0" stop-color="#527b93"/>
      <stop offset=".74" stop-color="#004a84"/>
      <stop offset="1" stop-color="#00537f"/>
    </linearGradient>
  </defs>
  <path class="cls-4" d="M627.26,879.29c19.56-35.57,47.02-46.15,73.71-65.92,15.67-11.76,30.97-26.06,43.99-51.15,3.85-7.52,32.29-60.88,24.33-93.62-1.08-3.98-6.03-20.86-5.69-44.17-.21-1.52-.14-2.82-.06-4.13-.2-5.14.24-9.34.61-12.23,2.82-.14,5.94-.06,9.42-2.87,7.68-4.18,12.33-9.74,15.09-12.2l.43-.58c.94-.65,1.6-1.52,1.6-1.52,2.11-5.21,2.41-10.42.98-15.13-1.13-9.92-7.27-18.62-14.42-25.37-.58-.44-1.23-1.38-1.23-1.38l-8.24-7.11c-3.4-2.11-6.72-3.71-9.4-6.18-1.09-.36-1.66-.8-1.66-.8-.65-.94-1.23-1.38-1.95-2.83-.5-1.74-.57-4.06.52-5.5.95-2.46,3.34-3.83,6.81-3.02,9.41.75,21.41,8.88,40.53,5.16,4.49-1.15,9.13-1.28,13.91-4.02,2.39.44,3.48-2.82,4.28-4.48.73-3.98.96-7.89-.26-12.89-1.78-12.67-8.34-24.42-15.62-37.61-9.23-14.21-17.88-29.8-19.88-42.18-7.17,2.3-13.83.91-20.92-1.71-7.38-2.84-12.65-9.08-16.9-15.46-2.09-2.03-2.67-4.28-3.17-6.02-2.31-3.55-2.74-6.59-3.31-10.65,2.45,4.57,5.7,7.47,9.02,10.88,4.7,3.99,10.41,7.84,16.26,10.9,6.73,1.9,12.95,3.87,18.67,4.1,2.32-.07,5.36-.49,7.96-.34,1.89-1.3,3.55-.5,4.27-.86,2.39-1.37,4.35-3.97,6.17-5.78l1.52,1.6c.58.43,2.24,1.23,2.24,1.23,2.39-1.37,5.43-1.8,7.18-4.11l9.87-10.69c.08-1.3.51-1.88,1.17-2.75,1.38-3.04,1.68-6.44,1.76-9.55l1.73,1.31c2.06-12.96-5.37-27.16-17.5-38.12-.36-.72-.43-1.23-.72-1.45l.51-.07c.23-5.72.03-10.86-.76-16.44-1.64-9.85-3.36-20.2-5.72-29.7-3.58-18.11-10.41-35.5-18.34-51.44-2.88-5.8-5.98-11.31-9.37-17.04-3.61-5.44-7.43-10.59-10.75-15.81-3.54-4.93-7.36-10.08-11.62-14.65-4.04-4.86-8.3-9.43-12.71-13.21-3.03-3.19-6.86-6.53-6.86-6.53l-8.24-7.11-1.23-1.38-.8-.15q.29.22.36.73c.36.72.5,1.74.86,2.46-14.3-17.12-30.7-27.22-42.93-33.26,37.38,111.58,33.42,195.62,24.31,250.4-2.93,15.92-7.25,33.07-28.96,91.95-6.04,15.84-13.04,34.14-22.07,56.34-4.59,11.5-9.32,23.8-14.64,37.47-17.55,44.34-40.13,100.75-68.89,171.99l-.43.58c-14.42,35.37-34.88,84.77-25.83,147.34,7.98,54.97,34.45,96.22,54.16,120.59-3.02-38.09-.8-92.16,26.83-143.86ZM702.91,725.99c-9.59,12.72-27.33,15.21-40.05,5.63-12.72-9.59-15.21-27.33-5.62-40.05,9.59-12.72,27.33-15.21,40.05-5.62,12.72,9.59,15.21,27.33,5.63,40.05Z"/>
  <path class="cls-2" d="M886.17,746.26c-27.31-54.58-72.16-97.9-122.63-125.97-39.33-22.39-82.01-35.52-122.11-37.64-.51.07-.8-.15-1.3-.08-45.32-2.42-62.65,10.35-144.88,6.39-47.34-2.14-83.03-4.11-121.94-18.03-27.27-10.13-89.97-38.8-142.91-123.12,2.06,16.51,6.42,40.19,18.81,65.85,7.64,15.73,31.08,53.79,109.21,105.88,95.78,63.57,138.53,47.75,195.71,110.79,9.75,10.52,14.44,18.13,18.4,24.3,5.05,8.34,8.8,14.79,19.92,24.08,34.54,28.75,71.89,31.52,108.51,34.64,14.62,1.05,29.02,2.39,43.35,5.03,44.43,9.01,103.37,36.66,165.29,120.49,6.74-34.81,16.48-112.68-23.44-192.63ZM662.87,731.61c-12.72-9.59-15.21-27.33-5.62-40.05,9.59-12.72,27.33-15.21,40.05-5.62,12.72,9.59,15.21,27.33,5.63,40.05-9.59,12.72-27.33,15.21-40.05,5.63Z"/>
  <rect class="cls-7" x="100.19" y="129.23" width="220.7" height="238.12" rx="49.61" ry="49.61"/>
  <rect class="cls-3" y="612.73" width="220.7" height="238.12" rx="49.61" ry="49.61"/>
  <rect class="cls-1" x="66.79" y="891.51" width="220.7" height="238.12" rx="49.61" ry="49.61"/>
  <rect class="cls-5" x="380.42" width="220.7" height="238.12" rx="49.61" ry="49.61"/>
  <rect class="cls-6" x="354.28" y="1059.94" width="220.7" height="238.12" rx="49.61" ry="49.61"/>
</svg>