<?xml version="1.0" encoding="UTF-8"?>
<svg id="Layer_1" data-name="Layer 1" xmlns="http://www.w3.org/2000/svg" viewBox="0 0 2396.37 806.52">
  <defs>
    <style>
      .cls-1 { fill: #2E3340; }
      .cls-2 { fill: #ef8244; }
      .cls-3 { fill: #f4a67f; }
    </style>
  </defs>
  <path class="cls-3" d="M586.14,542.85c-13.61-38.24-3.28-65.8-.35-98.89,1.61-19.53,1.08-40.46-9.04-66.86-3.06-7.88-24.08-64.57-53.85-80.36-3.69-1.84-19.61-9.34-36.81-25.08-1.28-.85-2.2-1.77-3.13-2.69-3.98-3.26-6.82-6.38-8.74-8.58,1.77-2.2,3.9-4.48,4.11-8.95,1.97-8.52.9-15.69.9-19.38l-.14-.71c.14-1.14-.08-2.2-.08-2.2-2.49-5.04-6.19-8.72-10.66-10.77-8.17-5.74-18.75-6.93-28.55-6.07-.71.14-1.85,0-1.85,0l-10.79,1.44c-3.83,1.14-7.24,2.56-10.86,2.92-.99.57-1.7.71-1.7.71-1.13-.14-1.85,0-3.41-.42-1.64-.78-3.41-2.27-3.77-4.04-1.21-2.34-.65-5.04,2.26-7.1,6.81-6.54,20.86-10.11,30.77-26.88,2.12-4.12,5.1-7.68,6.23-13.07,1.91-1.49.21-4.47-.51-6.18-2.49-3.19-5.26-5.96-9.81-8.36-10.66-7.08-23.79-9.98-38.49-13.29-16.76-2.53-34.16-6.41-44.74-13.14-3.04,6.89-8.5,10.94-15.17,14.5-7.02,3.63-15.19,3.43-22.78,2.37-2.91.22-4.97-.85-6.6-1.62-4.19-.63-6.75-2.33-10.16-4.6,5.04,1.2,9.37.7,14.13.48,6.11-.86,12.78-2.57,18.95-4.92,5.89-3.77,11.49-7.11,15.46-11.24,1.49-1.78,3.19-4.33,5.03-6.18.28-2.27,1.98-2.98,2.2-3.77.57-2.7-.08-5.89-.22-8.45l2.2-.07c.71-.14,2.41-.86,2.41-.86.57-2.7,2.27-5.26,1.69-8.1l-1.44-14.48c-.92-.92-1.07-1.63-1.28-2.69-1.35-3.05-3.7-5.53-5.97-7.66l2.13-.43c-8.32-10.14-23.87-14.02-40.13-12.23-.78-.21-1.21-.49-1.56-.42l.28-.43c-4.12-3.97-8.1-7.23-12.79-10.35-8.46-5.31-17.34-10.91-26-15.44-15.91-9.35-33.46-15.78-50.64-20.44-6.25-1.7-12.43-3.04-18.96-4.31-6.46-.91-12.85-1.47-18.96-2.46-6.03-.63-12.43-1.19-18.67-1.04-6.32-.2-12.57-.05-18.31.73-4.4.15-9.44.8-9.44.8l-10.79,1.43h-1.85s-.64.5-.64.5q.36-.07.78.21c.78.21,1.63.78,2.41.99-22.29-.68-40.74,4.88-53.37,10.01,108.25,46.13,168.46,104.9,203.38,148.09,9.95,12.76,19.91,27.37,49.52,82.71,7.83,15.04,16.87,32.42,27.48,53.91,5.55,11.07,11.6,22.77,18.29,35.82,21.5,42.56,48.69,96.9,82.86,165.72l.14.71c16.87,34.26,40.22,82.36,93.02,117.15,46.4,30.53,94.82,38.13,126.13,39.58-30.49-23.03-69.44-60.6-89.75-115.59ZM521.75,384.49c3.15,15.61-6.77,30.54-22.39,33.68-15.61,3.15-30.53-6.77-33.68-22.39-3.15-15.61,6.77-30.53,22.39-33.68,15.61-3.15,30.54,6.77,33.68,22.38Z"/>
  <path class="cls-2" d="M658.59,260.92c-58.94-15.82-121.12-11.05-175.62,8.05-42.86,14.54-81.02,37.74-109.23,66.31-.28.43-.64.5-.92.92-31.9,32.27-33.86,53.72-91.42,112.58-33.03,33.98-58.2,59.36-94.45,79.21-25.68,13.67-88.75,41.51-186.95,25.11,13.71,9.42,34.32,21.89,61.73,29.66,16.83,4.73,60.86,12.48,151.69-11.36,111.13-29.4,127.68-71.88,212.8-72.77,14.34-.3,23.14,1.25,30.39,2.37,9.59,1.76,16.9,3.24,31.24,1.09,44.43-6.73,71.3-32.83,97.96-58.13,10.49-10.24,21.06-20.12,32.54-29.08,36.24-27.24,96.05-52.95,199.85-43.58-21.55-28.15-73.31-87.14-159.6-110.38ZM499.36,418.17c-15.61,3.15-30.53-6.77-33.68-22.39-3.15-15.61,6.77-30.53,22.39-33.68,15.61-3.15,30.54,6.77,33.68,22.38s-6.77,30.54-22.39,33.68Z"/>
  <path class="cls-1" d="M813.56,699.38c-27.83,0-52.15-6.38-72.98-19.14-20.83-12.76-37-30.66-48.52-53.7-11.52-23.04-17.28-49.8-17.28-80.29s5.76-57.82,17.28-80.95c11.52-23.13,27.69-41.07,48.52-53.84,20.82-12.76,45.15-19.14,72.98-19.14s52.42,6.38,73.24,19.14c20.82,12.76,37,30.71,48.52,53.84,11.52,23.13,17.28,50.11,17.28,80.95s-5.76,57.25-17.28,80.29c-11.52,23.04-27.69,40.94-48.52,53.7-20.83,12.76-45.24,19.14-73.24,19.14ZM813.56,649.93c18.08,0,33.01-4.74,44.8-14.22,11.79-9.48,20.56-22.07,26.32-37.75,5.76-15.69,8.64-32.92,8.64-51.71s-2.88-36.38-8.64-52.24c-5.76-15.86-14.53-28.53-26.32-38.02-11.79-9.48-26.72-14.22-44.8-14.22s-32.7,4.74-44.4,14.22c-11.7,9.48-20.43,22.11-26.19,37.88-5.76,15.78-8.64,33.23-8.64,52.37s2.88,36.02,8.64,51.71c5.76,15.69,14.49,28.27,26.19,37.75,11.7,9.48,26.49,14.22,44.4,14.22Z"/>
  <path class="cls-1" d="M1119.01,699.38c-27.83,0-52.15-6.38-72.98-19.14-20.83-12.76-37-30.66-48.52-53.7-11.52-23.04-17.28-49.8-17.28-80.29s5.76-57.82,17.28-80.95c11.52-23.13,27.69-41.07,48.52-53.84,20.82-12.76,45.15-19.14,72.98-19.14s52.42,6.38,73.24,19.14c20.82,12.76,37,30.71,48.52,53.84,11.52,23.13,17.28,50.11,17.28,80.95s-5.76,57.25-17.28,80.29c-11.52,23.04-27.69,40.94-48.52,53.7-20.83,12.76-45.24,19.14-73.24,19.14ZM1119.01,649.93c18.08,0,33.01-4.74,44.8-14.22,11.79-9.48,20.56-22.07,26.32-37.75,5.76-15.69,8.64-32.92,8.64-51.71s-2.88-36.38-8.64-52.24c-5.76-15.86-14.53-28.53-26.32-38.02-11.79-9.48-26.72-14.22-44.8-14.22s-32.7,4.74-44.4,14.22c-11.7,9.48-20.43,22.11-26.19,37.88-5.76,15.78-8.64,33.23-8.64,52.37s2.88,36.02,8.64,51.71c5.76,15.69,14.49,28.27,26.19,37.75,11.7,9.48,26.49,14.22,44.4,14.22Z"/>
  <path class="cls-1" d="M1358,297.14v396.13h-58.49v-396.13h58.49Z"/>
  <path class="cls-1" d="M1519.89,699.38c-21.45,0-40.54-3.1-57.29-9.31-16.75-6.2-30.49-15.37-41.21-27.52-10.73-12.14-17.86-26.98-21.4-44.53l55.03-11.43c4.07,15.42,11.7,26.85,22.86,34.3,11.17,7.44,25.34,11.17,42.54,11.17,18.78,0,33.76-3.94,44.93-11.83,11.17-7.88,16.75-17.32,16.75-28.31,0-9.57-3.41-17.46-10.24-23.66-6.82-6.2-17.33-10.81-31.5-13.82l-49.98-11.43c-27.65-6.2-48.21-16.13-61.68-29.78-13.47-13.65-20.21-31.1-20.21-52.37,0-17.72,4.96-33.23,14.89-46.52,9.92-13.29,23.48-23.62,40.68-30.97,17.19-7.35,37.04-11.03,59.55-11.03s39.79,3.1,55.03,9.31c15.24,6.21,27.6,14.89,37.09,26.05,9.48,11.17,16.26,24.11,20.34,38.81l-52.37,11.43c-3.72-10.46-10.19-19.63-19.41-27.52-9.22-7.88-22.6-11.83-40.14-11.83-16.13,0-29.6,3.63-40.41,10.9-10.81,7.27-16.22,16.48-16.22,27.65,0,9.93,3.59,17.95,10.77,24.06s18.92,11.03,35.23,14.76l47.85,10.63c27.47,6.21,47.85,15.95,61.15,29.24s19.94,30.31,19.94,51.04c0,18.08-5.18,34.08-15.55,47.99-10.37,13.92-24.72,24.82-43.07,32.7-18.34,7.88-39.66,11.83-63.94,11.83Z"/>
  <path class="cls-1" d="M1810.19,396.04v47.59h-161.11v-47.59h161.11ZM1692.41,325.32h58.49v287.66c0,11.88,2.53,20.6,7.58,26.19,5.05,5.58,13.33,8.37,24.86,8.37,3.01,0,7-.35,11.96-1.06,4.96-.71,9.21-1.42,12.76-2.13l10.37,46.79c-6.21,2.13-12.85,3.68-19.94,4.65-7.09.97-14.09,1.46-21,1.46-26.94,0-47.85-6.95-62.74-20.87-14.89-13.91-22.33-33.45-22.33-58.62v-292.44Z"/>
  <path class="cls-1" d="M1964.63,699.38c-27.83,0-52.15-6.38-72.98-19.14-20.83-12.76-37-30.66-48.52-53.7-11.52-23.04-17.28-49.8-17.28-80.29s5.76-57.82,17.28-80.95c11.52-23.13,27.69-41.07,48.52-53.84,20.82-12.76,45.15-19.14,72.98-19.14s52.42,6.38,73.24,19.14c20.82,12.76,37,30.71,48.52,53.84,11.52,23.13,17.28,50.11,17.28,80.95s-5.76,57.25-17.28,80.29c-11.52,23.04-27.69,40.94-48.52,53.7-20.83,12.76-45.24,19.14-73.24,19.14ZM1964.63,649.93c18.08,0,33.01-4.74,44.8-14.22,11.79-9.48,20.56-22.07,26.32-37.75,5.76-15.69,8.64-32.92,8.64-51.71s-2.88-36.38-8.64-52.24c-5.76-15.86-14.53-28.53-26.32-38.02-11.79-9.48-26.72-14.22-44.8-14.22s-32.7,4.74-44.4,14.22c-11.7,9.48-20.43,22.11-26.19,37.88-5.76,15.78-8.64,33.23-8.64,52.37s2.88,36.02,8.64,51.71c5.76,15.69,14.49,28.27,26.19,37.75,11.7,9.48,26.49,14.22,44.4,14.22Z"/>
  <path class="cls-1" d="M2130.77,800.14l14.36-47.59,6.65,1.6c10.1,2.66,19.18,3.36,27.25,2.13,8.06-1.24,15.06-5.01,21-11.3,5.94-6.29,10.68-15.82,14.22-28.58l6.38-21.8-112.99-298.56h63.27l58.75,168.82c6.55,18.79,12,37.49,16.35,56.1,4.34,18.61,9.08,37.13,14.22,55.56h-18.08c5.14-18.43,10.06-37,14.75-55.7,4.69-18.7,10.32-37.35,16.88-55.96l59.82-168.82h62.74l-129.21,338.44c-6.03,15.95-13.43,29.24-22.2,39.88-8.77,10.63-19.19,18.65-31.24,24.06-12.05,5.4-26.05,8.11-42.01,8.11-9.22,0-17.46-.66-24.72-1.99-7.27-1.33-12.67-2.79-16.22-4.39Z"/>
</svg>
