<?xml version="1.0" encoding="UTF-8"?>
<svg id="Layer_2" data-name="Layer 2" xmlns="http://www.w3.org/2000/svg" xmlns:xlink="http://www.w3.org/1999/xlink" viewBox="0 0 63.53 18.87">
  <defs>
    <style>
      .cls-1 {
        fill: url(#linear-gradient);
      }

      .cls-1, .cls-2, .cls-3, .cls-4 {
        opacity: .74;
      }

      .cls-2 {
        fill: url(#linear-gradient-2);
      }

      .cls-3 {
        fill: url(#linear-gradient-3);
      }

      .cls-4 {
        fill: #3a3a3a;
      }
    </style>
    <linearGradient id="linear-gradient" x1="-9.38" y1="16.18" x2="-9.38" y2="32.37" gradientTransform="translate(30.33 -3.49) rotate(37.01)" gradientUnits="userSpaceOnUse">
      <stop offset="0" stop-color="#006b94"/>
      <stop offset=".21" stop-color="#026890"/>
      <stop offset="1" stop-color="#242131"/>
    </linearGradient>
    <linearGradient id="linear-gradient-2" x1="-16.04" y1="29.99" x2="-2.34" y2="22.08" gradientTransform="translate(30.33 -3.49) rotate(37.01)" gradientUnits="userSpaceOnUse">
      <stop offset="0" stop-color="#006b94"/>
      <stop offset=".35" stop-color="#016991"/>
      <stop offset="1" stop-color="#000020"/>
    </linearGradient>
    <linearGradient id="linear-gradient-3" x1="9.33" y1="12.11" x2="10.03" y2="12.11" gradientTransform="matrix(1,0,0,1,0,0)" xlink:href="#linear-gradient-2"/>
  </defs>
  <g id="Layer_2-2" data-name="Layer 2">
    <path class="cls-4" d="M21.3,15.34c-.11.02-.2.02-.26.02-.25,0-.44-.06-.55-.18s-.17-.32-.17-.58v-3.73h1.31v-1.05h-1.31v-1.56h-1.29v1.56h-.96v1.05h.96v3.84c0,.55.16.99.49,1.29s.79.46,1.38.46c.15,0,.31-.01.46-.03s.3-.06.44-.1l-.23-1.03c-.08.02-.17.03-.28.05Z"/>
    <path class="cls-4" d="M27.16,10.16c-.46-.28-1-.42-1.61-.42s-1.15.14-1.61.42-.82.68-1.07,1.19-.38,1.1-.38,1.78.13,1.26.38,1.77.61.9,1.07,1.18,1,.42,1.61.42,1.16-.14,1.61-.42.82-.68,1.07-1.18.38-1.1.38-1.77-.13-1.27-.38-1.78-.61-.91-1.07-1.19ZM27.11,14.27c-.13.35-.32.62-.58.83s-.59.31-.99.31-.72-.1-.98-.31-.45-.49-.58-.83-.19-.73-.19-1.14.06-.81.19-1.15.32-.63.58-.83.58-.31.98-.31.73.1.99.31.45.49.58.84.19.73.19,1.15-.06.79-.19,1.14Z"/>
    <path class="cls-4" d="M34.41,10.16c-.46-.28-1-.42-1.61-.42s-1.15.14-1.61.42-.82.68-1.07,1.19-.38,1.1-.38,1.78.13,1.26.38,1.77.61.9,1.07,1.18,1,.42,1.61.42,1.16-.14,1.61-.42.82-.68,1.07-1.18.38-1.1.38-1.77-.13-1.27-.38-1.78-.61-.91-1.07-1.19ZM34.36,14.27c-.13.35-.32.62-.58.83s-.59.31-.99.31-.72-.1-.98-.31-.45-.49-.58-.83-.19-.73-.19-1.14.06-.81.19-1.15.32-.63.58-.83.58-.31.98-.31.73.1.99.31.45.49.58.84.19.73.19,1.15-.06.79-.19,1.14Z"/>
    <rect class="cls-4" x="37.29" y="7.64" width="1.29" height="8.73"/>
    <path class="cls-4" d="M43.58,12.7l-1.05-.23c-.36-.08-.62-.19-.78-.33s-.24-.31-.24-.53c0-.25.12-.45.36-.61s.54-.24.89-.24c.39,0,.68.09.88.26s.35.38.43.61l1.15-.25c-.09-.32-.24-.61-.45-.86s-.48-.44-.82-.57-.74-.21-1.21-.21c-.5,0-.93.08-1.31.24s-.68.39-.9.68-.33.63-.33,1.03c0,.47.15.85.45,1.15s.75.52,1.36.66l1.1.25c.31.07.54.17.69.3s.23.31.23.52c0,.24-.12.45-.37.62s-.58.26-.99.26c-.38,0-.69-.08-.94-.25s-.41-.42-.5-.76l-1.21.25c.08.39.24.71.47.98s.54.47.91.61.79.21,1.26.21c.54,0,1-.09,1.41-.26s.72-.41.95-.72.34-.66.34-1.06c0-.46-.15-.83-.44-1.12s-.74-.51-1.35-.64Z"/>
    <path class="cls-4" d="M49.25,15.34c-.11.02-.2.02-.26.02-.25,0-.44-.06-.55-.18s-.17-.32-.17-.58v-3.73h1.31v-1.05h-1.31v-1.56h-1.29v1.56h-.96v1.05h.96v3.84c0,.55.16.99.49,1.29s.79.46,1.38.46c.15,0,.31-.01.46-.03s.3-.06.44-.1l-.23-1.03c-.08.02-.17.03-.28.05Z"/>
    <path class="cls-4" d="M55.11,10.16c-.46-.28-1-.42-1.61-.42s-1.15.14-1.61.42-.82.68-1.07,1.19-.38,1.1-.38,1.78.13,1.26.38,1.77.61.9,1.07,1.18,1,.42,1.61.42,1.16-.14,1.61-.42.82-.68,1.07-1.18.38-1.1.38-1.77-.13-1.27-.38-1.78-.61-.91-1.07-1.19ZM55.06,14.27c-.13.35-.32.62-.58.83s-.59.31-.99.31-.72-.1-.98-.31-.45-.49-.58-.83-.19-.73-.19-1.14.06-.81.19-1.15.32-.63.58-.83.58-.31.98-.31.73.1.99.31.45.49.58.84.19.73.19,1.15-.06.79-.19,1.14Z"/>
    <path class="cls-4" d="M62.14,9.82l-1.32,3.72c-.14.41-.27.82-.37,1.23-.04.16-.08.31-.12.46-.04-.15-.08-.31-.12-.46-.1-.41-.22-.82-.36-1.24l-1.29-3.72h-1.39l2.49,6.58-.14.48c-.08.28-.18.49-.31.63s-.29.22-.46.25-.38.01-.6-.05l-.15-.04-.32,1.05c.08.04.2.07.36.1s.34.04.54.04c.35,0,.66-.06.93-.18s.5-.3.69-.53.36-.53.49-.88l2.85-7.46h-1.38Z"/>
    <path class="cls-1" d="M8.54,15.77c.42-.77,1.01-.99,1.59-1.42.34-.25.67-.56.95-1.1.08-.16.69-1.31.52-2.02-.02-.09-.13-.45-.12-.95,0-.03,0-.06,0-.09,0-.11,0-.2.01-.26.06,0,.13,0,.2-.06.17-.09.27-.21.32-.26h0s.03-.05.03-.05c.05-.11.05-.22.02-.33-.02-.21-.16-.4-.31-.55-.01,0-.03-.03-.03-.03l-.18-.15c-.07-.05-.14-.08-.2-.13-.02,0-.04-.02-.04-.02-.01-.02-.03-.03-.04-.06-.01-.04-.01-.09.01-.12.02-.05.07-.08.15-.07.2.02.46.19.87.11.1-.02.2-.03.3-.09.05,0,.07-.06.09-.1.02-.09.02-.17,0-.28-.04-.27-.18-.53-.34-.81-.2-.31-.38-.64-.43-.91-.15.05-.3.02-.45-.04-.16-.06-.27-.2-.36-.33-.05-.04-.06-.09-.07-.13-.05-.08-.06-.14-.07-.23.05.1.12.16.19.23.1.09.22.17.35.23.14.04.28.08.4.09.05,0,.12-.01.17,0,.04-.03.08-.01.09-.02.05-.03.09-.09.13-.12l.03.03s.05.03.05.03c.05-.03.12-.04.15-.09l.21-.23s.01-.04.03-.06c.03-.07.04-.14.04-.21l.04.03c.04-.28-.12-.58-.38-.82,0-.02,0-.03-.02-.03h.01c0-.12,0-.24-.02-.36-.04-.21-.07-.43-.12-.64-.08-.39-.22-.76-.39-1.11-.06-.12-.13-.24-.2-.37-.08-.12-.16-.23-.23-.34-.08-.11-.16-.22-.25-.32-.09-.1-.18-.2-.27-.28-.07-.07-.15-.14-.15-.14l-.18-.15-.03-.03h-.02s0,0,0,.01c0,.02.01.04.02.05-.31-.37-.66-.59-.92-.72.8,2.4.72,4.21.52,5.39-.06.34-.16.71-.62,1.98-.13.34-.28.73-.47,1.21-.1.25-.2.51-.32.81-.38.95-.86,2.17-1.48,3.7h0c-.31.77-.75,1.84-.56,3.18.17,1.18.74,2.07,1.17,2.6-.07-.82-.02-1.98.58-3.1ZM10.17,12.47c-.21.27-.59.33-.86.12s-.33-.59-.12-.86.59-.33.86-.12.33.59.12.86Z"/>
    <path class="cls-2" d="M14.12,12.91c-.59-1.17-1.55-2.11-2.64-2.71-.85-.48-1.77-.76-2.63-.81-.01,0-.02,0-.03,0-.98-.05-1.35.22-3.12.14-1.02-.05-1.79-.09-2.62-.39-.59-.22-1.94-.84-3.08-2.65.04.36.14.87.4,1.42.16.34.67,1.16,2.35,2.28,2.06,1.37,2.98,1.03,4.21,2.38.21.23.31.39.4.52.11.18.19.32.43.52.74.62,1.55.68,2.34.75.31.02.62.05.93.11.96.19,2.22.79,3.56,2.59.15-.75.35-2.43-.5-4.15ZM9.31,12.59c-.27-.21-.33-.59-.12-.86s.59-.33.86-.12.33.59.12.86-.59.33-.86.12Z"/>
    <circle class="cls-3" cx="9.68" cy="12.11" r=".35"/>
  </g>
</svg>
