<?xml version="1.0" encoding="UTF-8"?>
<svg id="Layer_2" data-name="Layer 2" xmlns="http://www.w3.org/2000/svg" viewBox="0 0 216.52 66.13">
  <defs>
    <style>
      .cls-1 {
        fill: #262626;
      }
    </style>
  </defs>
  <g id="Layer_1-2" data-name="Layer 1">
    <path class="cls-1" d="M42.93,35.72c-2.3-1.36-5.03-2.04-8.2-2.04s-5.88.68-8.18,2.04c-2.31,1.36-4.08,3.25-5.33,5.68-1.25,2.43-1.87,5.27-1.87,8.54s.62,6.05,1.87,8.48c1.25,2.43,3.02,4.32,5.33,5.68,2.31,1.36,5.03,2.04,8.18,2.04s5.9-.68,8.2-2.04c2.3-1.36,4.07-3.25,5.32-5.68,1.25-2.43,1.87-5.25,1.87-8.48s-.62-6.11-1.87-8.54c-1.25-2.43-3.02-4.32-5.32-5.68ZM40.78,54.81c-.51,1.45-1.27,2.6-2.28,3.43-1.01.83-2.27,1.25-3.77,1.25s-2.75-.42-3.75-1.25c-1-.83-1.76-1.98-2.26-3.43-.51-1.45-.76-3.09-.76-4.91s.25-3.51.76-4.95c.51-1.44,1.26-2.58,2.26-3.4,1-.82,2.25-1.24,3.75-1.24s2.76.41,3.77,1.24c1.01.83,1.77,1.96,2.28,3.4.51,1.44.76,3.09.76,4.95s-.25,3.46-.76,4.91Z"/>
    <path class="cls-1" d="M75.78,35.72c-2.3-1.36-5.03-2.04-8.2-2.04s-5.88.68-8.18,2.04c-2.31,1.36-4.08,3.25-5.33,5.68-1.25,2.43-1.87,5.27-1.87,8.54s.62,6.05,1.87,8.48c1.25,2.43,3.02,4.32,5.33,5.68,2.31,1.36,5.03,2.04,8.18,2.04s5.9-.68,8.2-2.04c2.3-1.36,4.07-3.25,5.32-5.68,1.25-2.43,1.87-5.25,1.87-8.48s-.62-6.11-1.87-8.54c-1.25-2.43-3.02-4.32-5.32-5.68ZM73.63,54.81c-.51,1.45-1.27,2.6-2.28,3.43-1.01.83-2.27,1.25-3.77,1.25s-2.75-.42-3.75-1.25c-1-.83-1.76-1.98-2.26-3.43-.51-1.45-.76-3.09-.76-4.91s.25-3.51.76-4.95c.51-1.44,1.26-2.58,2.26-3.4,1-.82,2.25-1.24,3.75-1.24s2.76.41,3.77,1.24c1.01.83,1.77,1.96,2.28,3.4.51,1.44.76,3.09.76,4.95s-.25,3.46-.76,4.91Z"/>
    <rect class="cls-1" x="86.37" y="24.23" width="8.44" height="41.91"/>
    <path class="cls-1" d="M117.05,47.32l-5.65-1.12c-1.48-.3-2.53-.72-3.14-1.27-.61-.54-.91-1.21-.91-2,0-.97.47-1.75,1.41-2.33.94-.58,2.1-.87,3.49-.87,1.54,0,2.76.34,3.67,1.03.91.68,1.52,1.56,1.84,2.63l7.48-1.32c-.38-1.71-1.12-3.19-2.25-4.44-1.12-1.26-2.6-2.23-4.42-2.91-1.82-.68-3.97-1.03-6.44-1.03-2.66,0-4.98.39-6.95,1.18s-3.51,1.91-4.61,3.36c-1.11,1.45-1.66,3.19-1.66,5.22,0,2.34.75,4.26,2.25,5.75,1.5,1.49,3.77,2.55,6.81,3.16l5.43,1.12c1.37.28,2.39.68,3.05,1.21.67.53,1,1.2,1,2.02,0,.94-.46,1.71-1.39,2.32-.93.61-2.2.91-3.81.91-1.73,0-3.1-.37-4.13-1.1-1.03-.73-1.75-1.83-2.17-3.29l-7.85,1.35c.36,1.95,1.15,3.61,2.39,4.99,1.24,1.38,2.83,2.43,4.78,3.15,1.95.72,4.19,1.08,6.72,1.08,2.76,0,5.19-.43,7.3-1.29,2.11-.86,3.76-2.07,4.96-3.61s1.8-3.35,1.8-5.41c0-2.25-.74-4.07-2.22-5.47-1.48-1.4-3.74-2.4-6.78-3.02Z"/>
    <path class="cls-1" d="M143.23,59.28c-.58.08-1.03.13-1.35.13-1.03,0-1.77-.24-2.21-.72-.44-.48-.66-1.21-.66-2.21v-15.81h5.88v-6.44h-5.88v-7.48h-8.44v7.48h-4.33v6.44h4.33v16.54c0,2.87.83,5.07,2.5,6.61,1.67,1.54,4.08,2.31,7.23,2.31.84,0,1.73-.06,2.66-.17.93-.11,1.86-.31,2.8-.59l-1.21-6.33c-.3.08-.74.15-1.32.24Z"/>
    <path class="cls-1" d="M169.6,35.72c-2.3-1.36-5.03-2.04-8.2-2.04s-5.88.68-8.18,2.04c-2.31,1.36-4.08,3.25-5.33,5.68-1.25,2.43-1.87,5.27-1.87,8.54s.62,6.05,1.87,8.48c1.25,2.43,3.02,4.32,5.33,5.68,2.31,1.36,5.03,2.04,8.18,2.04s5.9-.68,8.2-2.04c2.3-1.36,4.07-3.25,5.32-5.68,1.25-2.43,1.87-5.25,1.87-8.48s-.62-6.11-1.87-8.54c-1.25-2.43-3.02-4.32-5.32-5.68ZM167.45,54.81c-.51,1.45-1.27,2.6-2.28,3.43-1.01.83-2.27,1.25-3.77,1.25s-2.75-.42-3.75-1.25c-1-.83-1.76-1.98-2.26-3.43-.51-1.45-.76-3.09-.76-4.91s.25-3.51.76-4.95c.51-1.44,1.26-2.58,2.26-3.4,1-.82,2.25-1.24,3.75-1.24s2.76.41,3.77,1.24c1.01.83,1.77,1.96,2.28,3.4.51,1.44.76,3.09.76,4.95s-.25,3.46-.76,4.91Z"/>
    <path class="cls-1" d="M210.98,15.27c-.37-.62-.96-1.12-1.73-1.46-.04-.07-.07-.14-.1-.2h.14c-.08-.51-.17-1.03-.27-1.54-.2-.92-.45-1.8-.76-2.64-.57-1.55-1.35-2.97-2.33-4.23-.69-.91-1.48-1.73-2.35-2.46-.85-.7-1.78-1.33-2.78-1.86-.36-.18-.73-.37-.73-.37-.46-.23-.88-.39-1.19-.51.9,1.83,2.11,4.78,2.62,8.59.5,3.84.09,7.19-.97,11.35h.02s-.02.08-.03.13c-.61,2.51-1.48,5.33-2.53,8.73-.35,1.14-.73,2.31-1.13,3.46-.41,1.17-.82,2.32-1.21,3.39-1.99-.99-4.18-2.1-6.22-3.21-2.45-1.35-4.58-2.54-6.47-3.64-.46-.27-.91-.55-1.33-.81-.12-.07-.23-.14-.34-.21-.11-.06-.21-.12-.3-.18-1.66-1.04-3.11-2.07-4.4-3.16-.06-.05-.12-.09-.16-.14-.32-.27-.63-.54-.92-.82-1.13-1.05-2.14-2.18-3.09-3.48-.48-.65-.91-1.29-1.29-1.91-1.45-2.39-2.29-4.57-2.78-6.11-.14.31-.32.71-.5,1.18,0,0-.14.38-.27.75-.11.33-.21.65-.3.98,0,0-.3,1.11-.42,2.27-.08.71-.17,6.94,4.03,13.41,5.74,8.87,16.64,13.74,19.81,15.05-3.25,4.13-2.89,8.58-2.89,8.58.02.25.05.5.1.74t0,.02c.43,2.67,1.87,4.47,2.65,5.4.36.42,2.51,2.95,6.09,4.06,1.04.32,2.7.82,4.63.27.4-.11.71-.24.95-.34-1.13-.49-1.81-1.09-2.22-1.51-1.92-2.05-1.94-5.07-1.29-7.74.33-1.35.83-2.6,1.34-3.59.51-.96,1.06-1.74,1.49-2.27.6.26,1.33.62,2.09,1.11.75.48,1.58,1.14,2.37,1.89,2.13,2.05,3.99,4.95,3.26,7.94-.15.58-.44,1.43-1.19,2.41.26-.04.59-.07.99-.17,1.95-.47,3.15-1.73,3.9-2.52,2.57-2.73,3.19-5.99,3.3-6.54.19-1.11.53-3.13-.17-5.43-.11-.43-.28-.86-.48-1.29,0,0-1.79-3.87-6.43-5.91-.37-.16-.74-.31-1.14-.44-.14-.06-1.89-.63-2-.66l.11-.03c.39-.13.95-.35,1.5-.75.8-.56,1.26-1.19,1.48-1.57l.02-.12c.04-.06.1-.14.11-.19.5-1.47-.57-2.64-1.8-3.31-.04-.02-.08-.03-.14-.05-.35-.08-.65-.22-.93-.44-.34-.11-.69-.22-1.06-.3-.06,0-.11-.04-.17-.07-.25-.13-.33-.42-.24-.7.08-.27.32-.53.71-.58,1.01-.13,2.41.28,4.48-.62.43-.17.89-.42,1.37-.73.23-.12.38-.36.4-.59.03-.41-.02-.82-.13-1.2-.32-1.09-1.15-2.1-2.03-3.05-.9-.95-1.8-1.87-2.25-2.82-.1-.19-.17-.39-.22-.58-.73.35-1.52.5-2.29.43-.82-.08-1.5-.42-1.98-.93-.14-.14-.25-.29-.36-.46-.12-.2-.22-.4-.3-.61.25.2.55.39.88.52.52.26,1.14.42,1.81.48.66.05,1.34,0,1.98-.14h0s.06-.03.06-.03c.3-.09.57-.19.84-.31-.02-.03-.05-.06-.06-.11l.15.08c.17-.07.31-.13.47-.21.04-.02.07-.04.11-.07.22-.14.43-.39.51-.61l.09.05c.07.04.14.08.22.12.29-.19.56-.38.79-.59.29-.28.55-.6.73-.94.09-.15.17-.3.24-.47.05-.11.09-.22.13-.33.09-.3.14-.61.15-.91h0c0-.59-.15-1.14-.45-1.62Z"/>
    <path class="cls-1" d="M18.65,34.24v6.44H0v-6.44h18.65ZM4.33,26.76h8.44v29.73c0,.99.22,1.73.66,2.21.44.48,1.18.72,2.21.72.32,0,.77-.04,1.35-.13s1.02-.16,1.32-.24l1.21,6.33c-.94.28-1.87.48-2.8.59-.93.11-1.81.17-2.66.17-3.15,0-5.56-.77-7.23-2.31-1.67-1.54-2.5-3.74-2.5-6.61v-30.46Z"/>
  </g>
</svg>
