<?xml version="1.0" encoding="UTF-8"?>
<svg id="Layer_1" data-name="Layer 1" xmlns="http://www.w3.org/2000/svg" viewBox="0 0 198.75 55.27">
  <path d="M15.47,36.96c-.53.08-.95.11-1.27.11-1.22,0-2.1-.3-2.63-.89-.53-.59-.8-1.51-.8-2.77V15.5h6.27v-5.03h-6.27V2.98h-6.19v7.48H0v5.03h4.58v18.42c0,2.66.79,4.73,2.36,6.2,1.58,1.47,3.79,2.21,6.64,2.21.73,0,1.47-.05,2.22-.15s1.45-.27,2.11-.49l-1.1-4.95c-.38.08-.83.15-1.35.22Z"/>
  <path d="M41.13,12.09c-2.2-1.35-4.79-2.02-7.75-2.02s-5.52.67-7.72,2.02c-2.2,1.35-3.91,3.25-5.13,5.7-1.22,2.45-1.83,5.3-1.83,8.56s.61,6.06,1.83,8.49c1.22,2.44,2.93,4.33,5.13,5.68,2.2,1.35,4.78,2.02,7.72,2.02s5.54-.68,7.75-2.02c2.2-1.35,3.91-3.24,5.13-5.68,1.22-2.44,1.83-5.27,1.83-8.49s-.61-6.12-1.83-8.56c-1.22-2.45-2.93-4.35-5.13-5.7ZM40.91,31.82c-.61,1.66-1.54,2.99-2.78,3.99s-2.83,1.5-4.74,1.5-3.46-.5-4.7-1.5c-1.24-1-2.16-2.33-2.77-3.99-.61-1.66-.91-3.48-.91-5.47s.3-3.87.91-5.54c.61-1.67,1.53-3,2.77-4.01,1.24-1,2.8-1.5,4.7-1.5s3.49.5,4.74,1.5c1.25,1,2.17,2.34,2.78,4.02.61,1.68.91,3.52.91,5.53s-.31,3.81-.91,5.47Z"/>
  <path d="M74.25,13.44c-2.44-1.22-5.27-1.83-8.49-1.83s-6.12.61-8.56,1.83c-2.45,1.22-4.35,2.93-5.7,5.13-1.35,2.2-2.02,4.79-2.02,7.75s.67,5.52,2.02,7.72c1.35,2.2,3.25,3.91,5.7,5.13,2.45,1.22,5.3,1.83,8.56,1.83s6.06-.61,8.49-1.83c2.44-1.22,4.33-2.93,5.68-5.13,1.35-2.2,2.02-4.78,2.02-7.72s-.68-5.54-2.02-7.75c-1.35-2.2-3.24-3.91-5.68-5.13ZM75.22,31.02c-1,1.24-2.33,2.16-3.99,2.77-1.66.61-3.48.91-5.47.91s-3.87-.3-5.54-.91c-1.67-.61-3-1.53-4.01-2.77-1-1.24-1.5-2.8-1.5-4.7s.5-3.49,1.5-4.74c1-1.25,2.34-2.17,4.02-2.78,1.68-.61,3.52-.91,5.53-.91s3.81.31,5.47.91c1.66.61,2.99,1.54,3.99,2.78s1.5,2.83,1.5,4.74-.5,3.46-1.5,4.7Z"/>
  <rect x="84.79" width="6.19" height="41.91"/>
  <path d="M112.49,24.27l-5.06-1.12c-1.73-.39-2.97-.91-3.73-1.56s-1.14-1.5-1.14-2.55c0-1.18.57-2.16,1.72-2.92,1.14-.77,2.57-1.15,4.27-1.15,1.86,0,3.27.42,4.25,1.25.97.83,1.66,1.81,2.05,2.91l5.54-1.21c-.43-1.56-1.15-2.92-2.15-4.11-1-1.18-2.31-2.1-3.92-2.76-1.61-.66-3.55-.98-5.82-.98-2.38,0-4.48.39-6.3,1.17-1.82.78-3.25,1.87-4.3,3.28-1.05,1.41-1.58,3.05-1.58,4.92,0,2.25.71,4.1,2.14,5.54,1.42,1.44,3.6,2.49,6.52,3.15l5.29,1.21c1.5.32,2.61.81,3.33,1.46.72.66,1.08,1.49,1.08,2.5,0,1.16-.59,2.16-1.77,3-1.18.83-2.77,1.25-4.75,1.25-1.82,0-3.32-.39-4.5-1.18-1.18-.79-1.99-2-2.42-3.63l-5.82,1.21c.37,1.86,1.13,3.43,2.26,4.71,1.13,1.28,2.59,2.25,4.36,2.91,1.77.66,3.79.98,6.06.98,2.57,0,4.82-.42,6.76-1.25,1.94-.83,3.46-1.99,4.56-3.46,1.1-1.47,1.65-3.16,1.65-5.08,0-2.19-.7-3.99-2.11-5.4s-3.56-2.44-6.47-3.09Z"/>
  <path d="M137.24,36.96c-.53.08-.95.11-1.27.11-1.22,0-2.1-.3-2.63-.89-.53-.59-.8-1.51-.8-2.77V15.5h6.27v-5.03h-6.27V2.98h-6.19v7.48h-4.58v5.03h4.58v18.42c0,2.66.79,4.73,2.36,6.2,1.58,1.47,3.79,2.21,6.64,2.21.73,0,1.47-.05,2.22-.15s1.45-.27,2.11-.49l-1.1-4.95c-.38.08-.83.15-1.35.22Z"/>
  <path d="M162.9,12.09c-2.2-1.35-4.79-2.02-7.75-2.02s-5.52.67-7.72,2.02c-2.2,1.35-3.91,3.25-5.13,5.7-1.22,2.45-1.83,5.3-1.83,8.56s.61,6.06,1.83,8.49c1.22,2.44,2.93,4.33,5.13,5.68,2.2,1.35,4.78,2.02,7.72,2.02s5.54-.68,7.75-2.02c2.2-1.35,3.91-3.24,5.13-5.68,1.22-2.44,1.83-5.27,1.83-8.49s-.61-6.12-1.83-8.56c-1.22-2.45-2.93-4.35-5.13-5.7ZM162.68,31.82c-.61,1.66-1.54,2.99-2.78,3.99s-2.83,1.5-4.74,1.5-3.46-.5-4.7-1.5c-1.24-1-2.16-2.33-2.77-3.99-.61-1.66-.91-3.48-.91-5.47s.3-3.87.91-5.54c.61-1.67,1.53-3,2.77-4.01,1.24-1,2.8-1.5,4.7-1.5s3.49.5,4.74,1.5c1.25,1,2.17,2.34,2.78,4.02.61,1.68.91,3.52.91,5.53s-.31,3.81-.91,5.47Z"/>
  <path d="M194.08,49.73c-1.07.28-2.03.36-2.88.23-.85-.13-1.59-.53-2.22-1.2-.63-.67-1.13-1.67-1.5-3.02l-.68-2.31,11.95-31.58h-6.69l-6.22,17.86c-.69,1.99-1.27,3.97-1.73,5.93-.18.75-.36,1.5-.55,2.26-.2-.76-.41-1.51-.6-2.27-.5-1.98-1.09-3.95-1.79-5.92l-6.33-17.86h-6.64l13.67,35.8c.64,1.69,1.42,3.09,2.35,4.22s2.03,1.97,3.3,2.55c1.28.57,2.76.86,4.44.86.98,0,1.85-.07,2.62-.21.77-.14,1.34-.3,1.72-.46l-1.52-5.03-.7.17Z"/>
</svg>
