<?xml version="1.0" encoding="UTF-8"?>
<svg id="Layer_1" data-name="Layer 1" xmlns="http://www.w3.org/2000/svg" viewBox="0 0 190.14 53.89">
  <path d="M14.96,10.46v3.32H0v-3.32h14.96ZM4.67,2.98h3.82v31.5c0,1.56.35,2.7,1.04,3.43.69.73,1.75,1.02,3.18.87.26,0,.59-.03.97-.1.38-.07.75-.14,1.08-.21l.79,3.29c-.41.13-.87.23-1.36.31-.5.07-1,.12-1.5.14-2.51.17-4.48-.43-5.89-1.79-1.42-1.36-2.12-3.26-2.12-5.7V2.98Z"/>
  <path d="M30.82,42.58c-2.74,0-5.15-.69-7.23-2.07-2.08-1.38-3.71-3.29-4.89-5.74-1.18-2.45-1.77-5.25-1.77-8.42s.59-6.06,1.77-8.51c1.18-2.45,2.81-4.36,4.89-5.74,2.08-1.38,4.49-2.07,7.23-2.07s5.12.69,7.21,2.07c2.09,1.38,3.73,3.29,4.91,5.74s1.77,5.28,1.77,8.51-.59,5.98-1.76,8.42c-1.17,2.45-2.8,4.36-4.89,5.74-2.09,1.38-4.5,2.07-7.24,2.07ZM30.82,39.12c2.16,0,3.98-.58,5.48-1.74,1.5-1.16,2.64-2.71,3.42-4.64.78-1.93,1.17-4.06,1.17-6.38s-.39-4.49-1.18-6.43c-.79-1.94-1.93-3.5-3.43-4.67-1.5-1.17-3.32-1.76-5.46-1.76s-3.95.59-5.44,1.76c-1.49,1.17-2.63,2.73-3.42,4.67-.79,1.94-1.18,4.08-1.18,6.43s.39,4.45,1.17,6.38c.78,1.93,1.91,3.48,3.4,4.64,1.49,1.16,3.31,1.74,5.47,1.74Z"/>
  <path d="M62.49,42.58c-2.74,0-5.15-.69-7.23-2.07-2.08-1.38-3.71-3.29-4.89-5.74-1.18-2.45-1.77-5.25-1.77-8.42s.59-6.06,1.77-8.51c1.18-2.45,2.81-4.36,4.89-5.74,2.08-1.38,4.49-2.07,7.23-2.07s5.12.69,7.21,2.07c2.09,1.38,3.73,3.29,4.91,5.74s1.77,5.28,1.77,8.51-.59,5.98-1.76,8.42c-1.17,2.45-2.8,4.36-4.89,5.74-2.09,1.38-4.5,2.07-7.24,2.07ZM62.49,39.12c2.16,0,3.98-.58,5.48-1.74,1.5-1.16,2.64-2.71,3.42-4.64.78-1.93,1.17-4.06,1.17-6.38s-.39-4.49-1.18-6.43c-.79-1.94-1.93-3.5-3.43-4.67-1.5-1.17-3.32-1.76-5.46-1.76s-3.95.59-5.44,1.76c-1.49,1.17-2.63,2.73-3.42,4.67-.79,1.94-1.18,4.08-1.18,6.43s.39,4.45,1.17,6.38c.78,1.93,1.91,3.48,3.4,4.64,1.49,1.16,3.31,1.74,5.47,1.74Z"/>
  <path d="M85.72,0v41.91h-3.82V0h3.82Z"/>
  <path d="M103.1,42.58c2.06,0,3.89-.31,5.48-.94s2.91-1.55,3.94-2.76,1.73-2.7,2.11-4.46l-3.66-.87c-.45,1.89-1.35,3.3-2.69,4.23-1.34.93-3.05,1.39-5.13,1.39-2.38,0-4.29-.53-5.72-1.6-1.43-1.07-2.15-2.4-2.15-3.99,0-1.27.43-2.33,1.28-3.18.85-.84,2.13-1.47,3.84-1.88l5.12-1.24c2.7-.66,4.72-1.68,6.06-3.08,1.34-1.4,2.01-3.15,2.01-5.27,0-1.76-.47-3.31-1.42-4.64-.95-1.33-2.25-2.37-3.91-3.12-1.66-.75-3.55-1.12-5.67-1.12-1.99,0-3.69.31-5.12.91-1.42.61-2.6,1.47-3.53,2.57s-1.63,2.42-2.1,3.94l3.49.9c.49-1.44,1.3-2.64,2.43-3.59s2.73-1.42,4.79-1.42,3.8.5,5.15,1.49c1.35.99,2.02,2.28,2.02,3.85,0,1.33-.45,2.42-1.36,3.26-.91.84-2.33,1.5-4.26,1.97l-4.81,1.15c-2.66.66-4.65,1.68-5.98,3.07s-1.98,3.12-1.98,5.2c0,1.8.5,3.39,1.49,4.78.99,1.39,2.38,2.47,4.15,3.26s3.81,1.18,6.12,1.18Z"/>
  <path d="M130.74,10.46v3.32h-14.96v-3.32h14.96ZM120.45,2.98h3.82v31.5c0,1.56.35,2.7,1.04,3.43.69.73,1.75,1.02,3.18.87.26,0,.59-.03.97-.1.38-.07.75-.14,1.08-.21l.79,3.29c-.41.13-.87.23-1.36.31-.5.07-1,.12-1.5.14-2.51.17-4.48-.43-5.89-1.79-1.42-1.36-2.12-3.26-2.12-5.7V2.98Z"/>
  <path d="M146.6,42.58c-2.74,0-5.15-.69-7.23-2.07-2.08-1.38-3.71-3.29-4.89-5.74-1.18-2.45-1.77-5.25-1.77-8.42s.59-6.06,1.77-8.51c1.18-2.45,2.81-4.36,4.89-5.74,2.08-1.38,4.49-2.07,7.23-2.07s5.12.69,7.21,2.07c2.09,1.38,3.73,3.29,4.91,5.74s1.77,5.28,1.77,8.51-.59,5.98-1.76,8.42c-1.17,2.45-2.8,4.36-4.89,5.74-2.09,1.38-4.5,2.07-7.24,2.07ZM146.6,39.12c2.16,0,3.98-.58,5.48-1.74,1.5-1.16,2.64-2.71,3.42-4.64.78-1.93,1.17-4.06,1.17-6.38s-.39-4.49-1.18-6.43c-.79-1.94-1.93-3.5-3.43-4.67-1.5-1.17-3.32-1.76-5.46-1.76s-3.95.59-5.44,1.76c-1.49,1.17-2.63,2.73-3.42,4.67-.79,1.94-1.18,4.08-1.18,6.43s.39,4.45,1.17,6.38c.78,1.93,1.91,3.48,3.4,4.64,1.49,1.16,3.31,1.74,5.47,1.74Z"/>
  <path d="M163.96,53.24l1.04-3.32.45.14c1.11.34,2.12.44,3.04.3.92-.14,1.74-.6,2.48-1.36.73-.77,1.36-1.9,1.88-3.4l1.24-3.43-12.07-31.7h4.16l7.26,19.77c.67,1.8,1.26,3.59,1.76,5.36.5,1.77,1.01,3.51,1.53,5.22h-1.35c.54-1.71,1.07-3.45,1.59-5.23.52-1.78,1.1-3.56,1.76-5.34l7.28-19.77h4.13l-13.95,36.56c-.6,1.56-1.31,2.84-2.14,3.85-.83,1.01-1.78,1.77-2.85,2.26-1.08.5-2.28.75-3.61.75-.77,0-1.47-.07-2.11-.2-.64-.13-1.14-.28-1.52-.45Z"/>
</svg>
